<?xml version="1.0" encoding="UTF-8" standalone="no"?>
<!DOCTYPE svg PUBLIC "-//W3C//DTD SVG 1.1//EN" "http://www.w3.org/Graphics/SVG/1.1/DTD/svg11.dtd">
<svg viewBox="-490 -330 1160 440" xmlns="http://www.w3.org/2000/svg">

    <marker xmlns="http://www.w3.org/2000/svg" id="triangle-#7e7e7e" viewBox="0 0 10 10" refX="1" refY="5" fill="#7e7e7e" markerUnits="strokeWidth" markerWidth="3" markerHeight="3" orient="auto">
        <path d="M 0 0 L 10 5 L 0 10 z"/>
    </marker>
    <line x1="-277" y1="-230" x2="-175" y2="-230" stroke="#7e7e7e" stroke-width="5" marker-end="url(#triangle-#7e7e7e)" />
    
    <marker xmlns="http://www.w3.org/2000/svg" id="triangle-#7e7e7e" viewBox="0 0 10 10" refX="1" refY="5" fill="#7e7e7e" markerUnits="strokeWidth" markerWidth="3" markerHeight="3" orient="auto">
        <path d="M 0 0 L 10 5 L 0 10 z"/>
    </marker>
    <line x1="-277" y1="-150" x2="-175" y2="-150" stroke="#7e7e7e" stroke-width="5" marker-end="url(#triangle-#7e7e7e)" />
    
    <marker xmlns="http://www.w3.org/2000/svg" id="triangle-#7e7e7e" viewBox="0 0 10 10" refX="1" refY="5" fill="#7e7e7e" markerUnits="strokeWidth" markerWidth="3" markerHeight="3" orient="auto">
        <path d="M 0 0 L 10 5 L 0 10 z"/>
    </marker>
    <line x1="-277" y1="-70" x2="-175" y2="-70" stroke="#7e7e7e" stroke-width="5" marker-end="url(#triangle-#7e7e7e)" />
    
    <marker xmlns="http://www.w3.org/2000/svg" id="triangle-#7e7e7e" viewBox="0 0 10 10" refX="1" refY="5" fill="#7e7e7e" markerUnits="strokeWidth" markerWidth="3" markerHeight="3" orient="auto">
        <path d="M 0 0 L 10 5 L 0 10 z"/>
    </marker>
    <line x1="357" y1="-110" x2="235" y2="-230" stroke="#7e7e7e" stroke-width="5" marker-end="url(#triangle-#7e7e7e)" />
    
    <marker xmlns="http://www.w3.org/2000/svg" id="triangle-#7e7e7e" viewBox="0 0 10 10" refX="1" refY="5" fill="#7e7e7e" markerUnits="strokeWidth" markerWidth="3" markerHeight="3" orient="auto">
        <path d="M 0 0 L 10 5 L 0 10 z"/>
    </marker>
    <line x1="357" y1="-110" x2="235" y2="-150" stroke="#7e7e7e" stroke-width="5" marker-end="url(#triangle-#7e7e7e)" />
    
    <marker xmlns="http://www.w3.org/2000/svg" id="triangle-#7e7e7e" viewBox="0 0 10 10" refX="1" refY="5" fill="#7e7e7e" markerUnits="strokeWidth" markerWidth="3" markerHeight="3" orient="auto">
        <path d="M 0 0 L 10 5 L 0 10 z"/>
    </marker>
    <line x1="357" y1="-110" x2="235" y2="-70" stroke="#7e7e7e" stroke-width="5" marker-end="url(#triangle-#7e7e7e)" />
    
    <marker xmlns="http://www.w3.org/2000/svg" id="triangle-#7e7e7e" viewBox="0 0 10 10" refX="1" refY="5" fill="#7e7e7e" markerUnits="strokeWidth" markerWidth="3" markerHeight="3" orient="auto">
        <path d="M 0 0 L 10 5 L 0 10 z"/>
    </marker>
    <line x1="357" y1="-110" x2="235" y2="10" stroke="#7e7e7e" stroke-width="5" marker-end="url(#triangle-#7e7e7e)" />
    
    <marker xmlns="http://www.w3.org/2000/svg" id="triangle-#7e7e7e" viewBox="0 0 10 10" refX="1" refY="5" fill="#7e7e7e" markerUnits="strokeWidth" markerWidth="3" markerHeight="3" orient="auto">
        <path d="M 0 0 L 10 5 L 0 10 z"/>
    </marker>
    <line x1="-90" y1="-103" x2="-90" y2="-105" stroke="#7e7e7e" stroke-width="5" marker-end="url(#triangle-#7e7e7e)" />
    
    <marker xmlns="http://www.w3.org/2000/svg" id="triangle-#7e7e7e" viewBox="0 0 10 10" refX="1" refY="5" fill="#7e7e7e" markerUnits="strokeWidth" markerWidth="3" markerHeight="3" orient="auto">
        <path d="M 0 0 L 10 5 L 0 10 z"/>
    </marker>
    <line x1="-90" y1="-183" x2="-90" y2="-185" stroke="#7e7e7e" stroke-width="5" marker-end="url(#triangle-#7e7e7e)" />
    
    <marker xmlns="http://www.w3.org/2000/svg" id="triangle-#7e7e7e" viewBox="0 0 10 10" refX="1" refY="5" fill="#7e7e7e" markerUnits="strokeWidth" markerWidth="3" markerHeight="3" orient="auto">
        <path d="M 0 0 L 10 5 L 0 10 z"/>
    </marker>
    <line x1="-17" y1="-230" x2="65" y2="-230" stroke="#7e7e7e" stroke-width="5" marker-end="url(#triangle-#7e7e7e)" />
    
    <marker xmlns="http://www.w3.org/2000/svg" id="triangle-#7e7e7e" viewBox="0 0 10 10" refX="1" refY="5" fill="#7e7e7e" markerUnits="strokeWidth" markerWidth="3" markerHeight="3" orient="auto">
        <path d="M 0 0 L 10 5 L 0 10 z"/>
    </marker>
    <line x1="-17" y1="-150" x2="65" y2="-150" stroke="#7e7e7e" stroke-width="5" marker-end="url(#triangle-#7e7e7e)" />
    
    <marker xmlns="http://www.w3.org/2000/svg" id="triangle-#7e7e7e" viewBox="0 0 10 10" refX="1" refY="5" fill="#7e7e7e" markerUnits="strokeWidth" markerWidth="3" markerHeight="3" orient="auto">
        <path d="M 0 0 L 10 5 L 0 10 z"/>
    </marker>
    <line x1="-17" y1="-70" x2="65" y2="-70" stroke="#7e7e7e" stroke-width="5" marker-end="url(#triangle-#7e7e7e)" />
    
    <rect x="80" y="-260" width="140" height="60" rx="15" stroke="#7e7e7e" stroke-width="4" fill="none"/>
    <text x="95" y="-230" font-family="Arial" font-size="18" font-weight="bold" fill="#2c2d2c">odoo01</text>
    
    <rect x="80" y="-180" width="140" height="60" rx="15" stroke="#7e7e7e" stroke-width="4" fill="none"/>
    <text x="95" y="-150" font-family="Arial" font-size="18" font-weight="bold" fill="#2c2d2c">odoo02</text>
    
    <rect x="80" y="-100" width="140" height="60" rx="15" stroke="#7e7e7e" stroke-width="4" fill="none"/>
    <text x="95" y="-70" font-family="Arial" font-size="18" font-weight="bold" fill="#2c2d2c">odoo03</text>
    
    <rect x="80" y="-20" width="140" height="60" rx="15" stroke="#7e7e7e" stroke-width="4" fill="none"/>
    <text x="95" y="10" font-family="Arial" font-size="18" font-weight="bold" fill="#2c2d2c">mailhog01</text>
    
    <rect x="-420" y="-260" width="140" height="60" rx="15" stroke="#7e7e7e" stroke-width="4" fill="none"/>
    <text x="-405" y="-230" font-family="Arial" font-size="18" font-weight="bold" fill="#2c2d2c">main branch</text>
    
    <rect x="-420" y="-180" width="140" height="60" rx="15" stroke="#7e7e7e" stroke-width="4" fill="none"/>
    <text x="-405" y="-150" font-family="Arial" font-size="18" font-weight="bold" fill="#2c2d2c">int branch</text>
    
    <rect x="-420" y="-100" width="140" height="60" rx="15" stroke="#7e7e7e" stroke-width="4" fill="none"/>
    <text x="-405" y="-70" font-family="Arial" font-size="18" font-weight="bold" fill="#2c2d2c">dev branch</text>
    
    <rect x="-160" y="-260" width="140" height="60" rx="15" stroke="#7e7e7e" stroke-width="4" fill="none"/>
    <text x="-145" y="-230" font-family="Arial" font-size="18" font-weight="bold" fill="#2c2d2c">main pipeline</text>
    
    <rect x="-160" y="-180" width="140" height="60" rx="15" stroke="#7e7e7e" stroke-width="4" fill="none"/>
    <text x="-145" y="-150" font-family="Arial" font-size="18" font-weight="bold" fill="#2c2d2c">int pipeline</text>
    
    <rect x="-160" y="-100" width="140" height="60" rx="15" stroke="#7e7e7e" stroke-width="4" fill="none"/>
    <text x="-145" y="-70" font-family="Arial" font-size="18" font-weight="bold" fill="#2c2d2c">dev pipeline</text>
    
    <rect x="360" y="-200" width="220" height="180" rx="15" stroke="#7e7e7e" stroke-width="4" fill="none"/>
    <text x="375" y="-190" font-family="Arial" font-size="18" font-weight="bold" fill="#2c2d2c"><tspan x="375" dy="21">nginx01</tspan><tspan x="375" dy="21">- odoo.example.com</tspan><tspan x="375" dy="21">- int.example.com</tspan><tspan x="375" dy="21">- dev.example.com</tspan><tspan x="375" dy="21">- mail.example.com</tspan><tspan x="375" dy="21">- cd.example.com</tspan></text>
    
    <rect x="60" y="-280" width="560" height="340" rx="30" stroke="#7e7e7e" stroke-width="4" fill="none"/>
    <text x="75" y="-295" font-family="Arial" font-size="24" font-weight="bold" fill="#2c2d2c">Odoo Environment</text>
    
    <rect x="-180" y="-280" width="180" height="260" rx="30" stroke="#7e7e7e" stroke-width="4" fill="none"/>
    <text x="-165" y="-295" font-family="Arial" font-size="24" font-weight="bold" fill="#2c2d2c">Drone</text>
    
    <rect x="-440" y="-280" width="180" height="260" rx="30" stroke="#7e7e7e" stroke-width="4" fill="none"/>
    <text x="-425" y="-295" font-family="Arial" font-size="24" font-weight="bold" fill="#2c2d2c">GitHub Repo</text>
    </svg>