<?xml version="1.0" encoding="UTF-8"?>
<!-- Generator: Adobe Illustrator 21.1.0, SVG Export Plug-In . SVG Version: 6.00 Build 0)  -->
<svg version="1.1" id="layout" xmlns="http://www.w3.org/2000/svg" xmlns:xlink="http://www.w3.org/1999/xlink" x="0px" y="0px" viewBox="0 0 311.8 70.4" style="enable-background:new 0 0 311.8 70.4;" xml:space="preserve">
<style type="text/css">
	.st0{fill:#75A300;}
	.st1{fill:#0053A1;}
</style>
<title>Sozialinfo_Logo_RGB</title>
<g>
	<ellipse class="st0" cx="57.5" cy="17.3" rx="8" ry="8"/>
	<path class="st0" d="M36.1,29.7c-1.3,0-2.3,1-2.3,2.3l0,0l0,0c0,0,0,0,0,0.1v7c0,0,0,0,0,0.1l0,0c0,1.3,1,2.3,2.3,2.3l0,0l0,0h14.3   V68l0,0c0,1.3,1,2.3,2.3,2.3h9.4c1.3,0,2.3-1,2.3-2.3l0,0l0,0V32.1l0,0c0-1.3-1-2.3-2.3-2.3L36.1,29.7L36.1,29.7L36.1,29.7z"/>
</g>
<g>
	<path class="st1" d="M40.4,70.1c1.3,0,2.3-1,2.3-2.3l0,0v-5.9l0,0c0-1.3-1-2.3-2.3-2.3l0,0H26.8c-10.8,0-16.3-4.3-16.3-12.8v-4.6   l0,0c0-1.3-1-2.3-2.3-2.3H2.3C1,40,0,41,0,42.2l0,0v4.6C0,54,2.5,60,7.4,64.1c4.7,4,11.2,6.1,19.4,6.1L40.4,70.1L40.4,70.1z"/>
	<path class="st1" d="M43.3,10.5c1.3,0,2.3-1,2.3-2.3l0,0V2.3l0,0c0-1.3-1-2.3-2.3-2.3l0,0h-4.6C25,0,17.1,7.8,17.1,21.5v6l0,0   c0,1.3,1,2.3,2.3,2.3l0,0l0,0h5.8h0.1l0,0l0,0c1.3,0,2.3-1,2.3-2.3l0,0l0,0v-6c0-7.8,3.2-11,11.2-11H43.3L43.3,10.5z"/>
	<path class="st1" d="M94.8,49.2c0.6,0.2,1.2,0.6,1.7,1.1c0.4,0.4,0.6,1,0.6,1.5c0,0.6-0.3,1.2-0.7,1.7c-0.4,0.4-0.9,0.7-1.5,0.6   c-0.6,0-1.1-0.2-1.6-0.5c-1.3-0.7-2.7-1-4.2-1.1c-2.1,0-3.1,1-3.1,2.1c0,1.3,0.8,1.8,2.3,1.9l3.4,0.3c4.3,0.4,6.5,2.7,6.5,6.4   c0,4.8-4.1,7.1-9.2,7.1c-3.4,0-5.6-0.6-7.5-1.9c-0.8-0.4-1.3-1.2-1.3-2.1c0-0.7,0.3-1.4,0.9-1.9c0.4-0.4,0.9-0.6,1.4-0.5   c0.6,0,1.3,0.3,1.8,0.6c1.4,0.9,3.1,1.3,4.8,1.3c2,0,3.8-0.7,3.8-2.3c0-1.1-0.6-1.9-2.3-2l-3.4-0.3c-3.9-0.4-6.4-2.1-6.4-6.1   c0-4.5,4-6.9,8.4-6.9C91.1,48.1,93,48.5,94.8,49.2z"/>
	<path class="st1" d="M117.6,67.7c-3.8,3.6-9.7,3.6-13.5,0c-2-2.1-2.5-4.5-2.5-8.5s0.5-6.4,2.5-8.5c3.8-3.6,9.7-3.6,13.5,0   c2,2.1,2.5,4.5,2.5,8.5S119.5,65.6,117.6,67.7z M108.3,64.5c1.5,1.3,3.6,1.3,5.1,0c1.1-1.1,1.3-3,1.3-5.3s-0.2-4.2-1.3-5.3   c-1.5-1.3-3.6-1.3-5.1,0c-1.1,1.1-1.3,3-1.3,5.3C107,61.6,107.2,63.5,108.3,64.5L108.3,64.5z"/>
	<path class="st1" d="M124.9,48.7c0.7-0.3,1.5-0.4,2.2-0.3h9.8c0.8-0.1,1.6,0.1,2.3,0.4c0.7,0.4,1.1,1.1,1.1,1.9   c0,1-0.4,1.9-1.1,2.6l-8.8,11.9h6.5c0.8-0.1,1.5,0,2.2,0.3c1.2,0.7,1.5,2.3,0.8,3.5c-0.2,0.3-0.5,0.6-0.8,0.8   c-0.7,0.3-1.5,0.4-2.2,0.3h-10.4c-0.8,0.1-1.6-0.1-2.3-0.4c-0.7-0.4-1.1-1.1-1.1-1.9c0-1,0.4-1.9,1.1-2.6l8.7-11.9H127   c-0.8,0.1-1.5,0-2.2-0.3c-1.2-0.7-1.5-2.3-0.8-3.5C124.3,49.2,124.6,48.9,124.9,48.7L124.9,48.7z"/>
	<path class="st1" d="M147.2,39.2c1.7,0,3.1,1.4,3.1,3.1s-1.4,3.1-3.1,3.1c-1.7,0-3.1-1.4-3.1-3.1C144,40.6,145.4,39.2,147.2,39.2   L147.2,39.2z M149.5,69c-0.8,1.3-2.6,1.7-3.9,0.9c-0.3-0.2-0.6-0.5-0.9-0.9c-0.3-0.8-0.4-1.6-0.4-2.4v-14c-0.1-0.8,0-1.7,0.4-2.4   c0.8-1.3,2.6-1.7,3.9-0.9c0.3,0.2,0.6,0.5,0.9,0.9c0.3,0.8,0.4,1.6,0.4,2.4v14C150,67.4,149.8,68.3,149.5,69L149.5,69z"/>
	<path class="st1" d="M159.4,53.8c-0.5,0.3-1.2,0.5-1.8,0.6c-0.6,0-1.2-0.3-1.5-0.7c-0.4-0.4-0.6-1-0.6-1.6c0.1-1.2,0.9-2.2,2-2.6   c1.7-0.9,3.6-1.3,5.5-1.3c6.1,0,9.2,2.6,9.2,7.7v10.8c0.1,0.8,0,1.7-0.4,2.4c-0.5,0.8-1.4,1.3-2.3,1.2c-0.6,0-1.3-0.2-1.7-0.6   s-0.7-0.9-0.8-1.4c-1.4,1.5-3.4,2.3-5.4,2.2c-2,0.1-4.1-0.6-5.6-2c-1.2-1.3-1.9-3.1-1.8-4.9c0-3.5,2.4-6.3,7.5-6.3h5.1v-1.1   c0-2.4-1.2-3.4-3.8-3.4C161.6,52.7,160.4,53.1,159.4,53.8z M166.7,61h-4.1c-2.2,0-3.2,0.9-3.2,2.5c0,1.5,1,2.5,3.3,2.5   c1.2,0.1,2.3-0.3,3.2-1c0.6-0.6,0.8-1.4,0.8-2.8V61z"/>
	<path class="st1" d="M183,63.6c-0.1,0.9,0.5,1.8,1.4,1.9c0.1,0,0.2,0,0.4,0c0.6,0,1.1,0.1,1.6,0.3c0.7,0.4,1.1,1.1,1.1,1.9   c0.1,0.8-0.4,1.6-1.1,1.9c-0.7,0.3-1.5,0.4-2.2,0.4h-0.3c-4.5,0-6.3-3-6.3-6.2V44c-0.1-0.8,0-1.7,0.4-2.4c0.8-1.3,2.5-1.7,3.8-0.9   c0.3,0.2,0.6,0.5,0.9,0.9c0.3,0.8,0.4,1.6,0.4,2.4L183,63.6z"/>
	<path class="st1" d="M193.6,39.2c1.7,0,3.1,1.4,3.1,3.1c0,1.7-1.4,3.1-3.1,3.1c-1.7,0-3.1-1.4-3.1-3.1   C190.4,40.6,191.8,39.2,193.6,39.2C193.5,39.2,193.5,39.2,193.6,39.2z M195.9,69c-0.8,1.3-2.6,1.7-3.9,0.9   c-0.3-0.2-0.6-0.5-0.9-0.9c-0.3-0.8-0.4-1.6-0.4-2.4v-14c-0.1-0.8,0-1.7,0.4-2.4c0.8-1.3,2.6-1.7,3.9-0.9c0.3,0.2,0.6,0.5,0.9,0.9   c0.3,0.8,0.4,1.6,0.4,2.4v14C196.4,67.4,196.2,68.3,195.9,69L195.9,69z"/>
	<path class="st1" d="M212.8,48.2c1.9-0.1,3.8,0.6,5.1,1.9c1.6,1.7,2.4,3.9,2.2,6.2v10.4c0.1,0.8,0,1.7-0.4,2.4   c-0.8,1.3-2.6,1.7-3.9,0.9c-0.3-0.2-0.6-0.5-0.9-0.9c-0.3-0.8-0.4-1.6-0.4-2.4V57c0-2.9-1.9-3.9-3.6-3.9c-1.7,0-3.6,1-3.6,3.9v9.6   c0.1,0.8,0,1.7-0.4,2.4c-0.8,1.3-2.6,1.7-3.9,0.9c-0.3-0.2-0.6-0.5-0.9-0.9c-0.3-0.8-0.4-1.6-0.4-2.4V51.9c-0.1-0.8,0-1.7,0.4-2.4   c0.5-0.8,1.4-1.3,2.3-1.3c0.6,0,1.3,0.2,1.7,0.6c0.4,0.4,0.7,1,0.8,1.6C208.8,49,210.8,48.1,212.8,48.2z"/>
	<path class="st1" d="M227,46.3c0-3.2,1.8-6.2,6.3-6.2h0.3c0.8,0,1.5,0.1,2.2,0.4c0.7,0.4,1.1,1.1,1.1,1.9c0.1,0.8-0.4,1.6-1.1,1.9   c-0.5,0.2-1.1,0.3-1.6,0.3c-0.9-0.1-1.7,0.6-1.8,1.6c0,0.1,0,0.2,0,0.4V49h1.6c0.6-0.1,1.3,0,1.8,0.3c1,0.6,1.3,1.9,0.7,2.9   c-0.2,0.3-0.4,0.5-0.7,0.7c-0.6,0.3-1.2,0.4-1.8,0.3h-1.6v13.4c0.1,0.8,0,1.7-0.4,2.4c-0.8,1.3-2.6,1.7-3.9,0.9   c-0.3-0.2-0.6-0.5-0.9-0.9c-0.3-0.8-0.4-1.6-0.4-2.4V53.2h-0.6c-0.6,0.1-1.3,0-1.8-0.3c-1-0.6-1.3-1.9-0.7-2.9   c0.2-0.3,0.4-0.5,0.7-0.7c0.6-0.3,1.2-0.4,1.8-0.3h0.6L227,46.3z"/>
	<path class="st1" d="M254.7,67.7c-3.8,3.6-9.7,3.6-13.5,0c-2-2.1-2.5-4.5-2.5-8.5s0.5-6.4,2.5-8.5c3.8-3.6,9.7-3.6,13.5,0   c2,2.1,2.5,4.5,2.5,8.5S256.7,65.6,254.7,67.7z M245.5,64.5c1.5,1.3,3.6,1.3,5.1,0c1.1-1.1,1.3-3,1.3-5.3s-0.2-4.2-1.3-5.3   c-1.5-1.3-3.6-1.3-5.1,0c-1.1,1.1-1.3,3-1.3,5.3C244.2,61.6,244.4,63.5,245.5,64.5L245.5,64.5z"/>
	<path class="st1" d="M265.1,70.3c-2,0-3.6-1.6-3.6-3.6s1.6-3.6,3.6-3.6l0,0c2,0,3.7,1.6,3.7,3.6C268.8,68.6,267.2,70.3,265.1,70.3   L265.1,70.3z"/>
	<path class="st1" d="M286.8,49.2c1.2,0.6,2.6,1.7,2.6,3.1c0,0.7-0.3,1.3-0.8,1.8c-0.4,0.4-1,0.7-1.7,0.7s-1.4-0.3-1.9-0.7   c-0.7-0.6-1.7-0.9-2.6-0.9c-1.2,0-2.3,0.5-3.1,1.4c-0.8,1-1.2,2.5-1.2,4.8s0.4,3.8,1.2,4.8c0.7,0.9,1.9,1.5,3.1,1.4   c1,0,1.9-0.3,2.6-0.9c0.5-0.5,1.2-0.7,1.9-0.8c1.3,0.1,2.4,1.2,2.4,2.5c0,1.4-1.4,2.4-2.6,3.1c-1.3,0.7-2.8,1.1-4.3,1   c-4.3,0-9.7-2.3-9.7-11.1s5.4-11.1,9.7-11.1C284,48.1,285.5,48.5,286.8,49.2z"/>
	<path class="st1" d="M311.5,69c-0.8,1.3-2.6,1.7-3.9,0.9c-0.3-0.2-0.6-0.5-0.9-0.9c-0.3-0.8-0.4-1.6-0.4-2.4V57   c0-2.9-1.9-3.9-3.6-3.9s-3.6,1-3.6,3.9v9.6c0.1,0.8,0,1.7-0.4,2.4c-0.8,1.3-2.6,1.7-3.9,0.9c-0.3-0.2-0.6-0.5-0.9-0.9   c-0.3-0.8-0.4-1.6-0.4-2.4V44c-0.1-0.8,0-1.7,0.4-2.4c0.8-1.3,2.6-1.7,3.9-0.9c0.3,0.2,0.6,0.5,0.9,0.9c0.3,0.8,0.4,1.6,0.4,2.4   v6.4c1.4-1.5,3.3-2.3,5.3-2.3c1.9-0.1,3.8,0.6,5.1,1.9c1.6,1.7,2.4,3.9,2.2,6.2v10.4C311.9,67.4,311.8,68.3,311.5,69z"/>
</g>
<script xmlns=""/></svg>